<svg width="72" height="73" viewBox="0 0 72 73" fill="none" xmlns="http://www.w3.org/2000/svg">
<g clip-path="url(#clip0_1102_1743)">
<path d="M36.287 49.7289C36.6542 49.7289 37.0064 49.583 37.266 49.3233C37.5257 49.0636 37.6716 48.7115 37.6716 48.3442V41.7376C37.6716 41.3704 37.5257 41.0182 37.266 40.7586C37.0064 40.4989 36.6542 40.353 36.287 40.353C35.9197 40.353 35.5676 40.4989 35.3079 40.7586C35.0482 41.0182 34.9023 41.3704 34.9023 41.7376V48.3442C34.9023 48.7115 35.0482 49.0636 35.3079 49.3233C35.5676 49.583 35.9197 49.7289 36.287 49.7289Z" fill="#2B8761"/>
<path d="M36.287 20.2802C36.6542 20.2802 37.0064 20.1343 37.266 19.8747C37.5257 19.615 37.6716 19.2628 37.6716 18.8956V12.3207C37.6716 11.9534 37.5257 11.6012 37.266 11.3416C37.0064 11.0819 36.6542 10.936 36.287 10.936C35.9197 10.936 35.5676 11.0819 35.3079 11.3416C35.0482 11.6012 34.9023 11.9534 34.9023 12.3207V18.9272C34.9106 19.289 35.0601 19.6331 35.3189 19.8859C35.5777 20.1388 35.9252 20.2803 36.287 20.2802Z" fill="#2B8761"/>
<path d="M36.287 35.0204C36.6542 35.0204 37.0064 34.8745 37.266 34.6148C37.5257 34.3551 37.6716 34.003 37.6716 33.6357V27.0291C37.6716 26.6619 37.5257 26.3097 37.266 26.0501C37.0064 25.7904 36.6542 25.6445 36.287 25.6445C35.9197 25.6445 35.5676 25.7904 35.3079 26.0501C35.0482 26.3097 34.9023 26.6619 34.9023 27.0291V33.6357C34.9023 34.003 35.0482 34.3551 35.3079 34.6148C35.5676 34.8745 35.9197 35.0204 36.287 35.0204Z" fill="#2B8761"/>
<path d="M46.1036 20.2802C46.4626 20.2762 46.8061 20.1329 47.0615 19.8804C47.3168 19.628 47.4642 19.2862 47.4724 18.9272V12.3207C47.4724 11.9534 47.3265 11.6012 47.0668 11.3416C46.8071 11.0819 46.455 10.936 46.0877 10.936C45.7205 10.936 45.3683 11.0819 45.1087 11.3416C44.849 11.6012 44.7031 11.9534 44.7031 12.3207V18.9272C44.7114 19.2917 44.8631 19.6382 45.1253 19.8915C45.3875 20.1448 45.739 20.2845 46.1036 20.2802Z" fill="#2B8761"/>
<path d="M46.1036 35.0204C46.468 35.0162 46.8162 34.8685 47.0724 34.6093C47.3287 34.35 47.4724 34.0002 47.4724 33.6357V27.0291C47.4724 26.6619 47.3265 26.3097 47.0668 26.0501C46.8071 25.7904 46.455 25.6445 46.0877 25.6445C45.7205 25.6445 45.3683 25.7904 45.1087 26.0501C44.849 26.3097 44.7031 26.6619 44.7031 27.0291V33.6357C44.7031 33.8189 44.7394 34.0003 44.81 34.1693C44.8806 34.3383 44.984 34.4917 45.1142 34.6204C45.2445 34.7492 45.399 34.8509 45.5688 34.9195C45.7387 34.9882 45.9204 35.0224 46.1036 35.0204Z" fill="#2B8761"/>
<path d="M46.1036 49.7289C46.468 49.7247 46.8162 49.577 47.0724 49.3178C47.3287 49.0585 47.4724 48.7087 47.4724 48.3442V41.7376C47.4724 41.3704 47.3265 41.0182 47.0668 40.7586C46.8071 40.4989 46.455 40.353 46.0877 40.353C45.7205 40.353 45.3683 40.4989 45.1087 40.7586C44.849 41.0182 44.7031 41.3704 44.7031 41.7376V48.3442C44.7031 48.5274 44.7394 48.7088 44.81 48.8778C44.8806 49.0468 44.984 49.2002 45.1142 49.3289C45.2445 49.4577 45.399 49.5594 45.5688 49.628C45.7387 49.6967 45.9204 49.7309 46.1036 49.7289Z" fill="#2B8761"/>
<path d="M62.3338 54.9904H63.5048C63.872 54.9904 64.2242 54.8445 64.4839 54.5849C64.7436 54.3252 64.8894 53.973 64.8894 53.6058C64.8894 53.2386 64.7436 52.8864 64.4839 52.6267C64.2242 52.3671 63.872 52.2212 63.5048 52.2212H62.3338C61.9666 52.2212 61.6144 52.3671 61.3548 52.6267C61.0951 52.8864 60.9492 53.2386 60.9492 53.6058C60.9492 53.973 61.0951 54.3252 61.3548 54.5849C61.6144 54.8445 61.9666 54.9904 62.3338 54.9904Z" fill="#2B8761"/>
<path d="M62.3338 47.0622H63.5048C63.872 47.0622 64.2242 46.9163 64.4839 46.6567C64.7436 46.397 64.8894 46.0448 64.8894 45.6776C64.8894 45.3104 64.7436 44.9582 64.4839 44.6985C64.2242 44.4388 63.872 44.293 63.5048 44.293H62.3338C61.9666 44.293 61.6144 44.4388 61.3548 44.6985C61.0951 44.9582 60.9492 45.3104 60.9492 45.6776C60.9492 46.0448 61.0951 46.397 61.3548 46.6567C61.6144 46.9163 61.9666 47.0622 62.3338 47.0622Z" fill="#2B8761"/>
<path d="M62.3338 62.8469H63.5048C63.872 62.8469 64.2242 62.701 64.4839 62.4413C64.7436 62.1817 64.8894 61.8295 64.8894 61.4623C64.8894 61.095 64.7436 60.7428 64.4839 60.4832C64.2242 60.2235 63.872 60.0776 63.5048 60.0776H62.3338C61.9666 60.0776 61.6144 60.2235 61.3548 60.4832C61.0951 60.7428 60.9492 61.095 60.9492 61.4623C60.9492 61.8295 61.0951 62.1817 61.3548 62.4413C61.6144 62.701 61.9666 62.8469 62.3338 62.8469Z" fill="#2B8761"/>
<path d="M19.6073 39.2058H20.7703C21.1376 39.2058 21.4898 39.0599 21.7494 38.8002C22.0091 38.5405 22.155 38.1884 22.155 37.8211C22.155 37.4539 22.0091 37.1017 21.7494 36.8421C21.4898 36.5824 21.1376 36.4365 20.7703 36.4365H19.6073C19.24 36.4365 18.8879 36.5824 18.6282 36.8421C18.3685 37.1017 18.2227 37.4539 18.2227 37.8211C18.2227 38.1884 18.3685 38.5405 18.6282 38.8002C18.8879 39.0599 19.24 39.2058 19.6073 39.2058Z" fill="#2B8761"/>
<path d="M19.6073 31.278H20.7703C21.1376 31.278 21.4898 31.1321 21.7494 30.8725C22.0091 30.6128 22.155 30.2606 22.155 29.8934C22.155 29.5262 22.0091 29.174 21.7494 28.9143C21.4898 28.6547 21.1376 28.5088 20.7703 28.5088H19.6073C19.24 28.5088 18.8879 28.6547 18.6282 28.9143C18.3685 29.174 18.2227 29.5262 18.2227 29.8934C18.2227 30.2606 18.3685 30.6128 18.6282 30.8725C18.8879 31.1321 19.24 31.278 19.6073 31.278Z" fill="#2B8761"/>
<path d="M19.6073 47.0622H20.7703C21.1376 47.0622 21.4898 46.9163 21.7494 46.6567C22.0091 46.397 22.155 46.0448 22.155 45.6776C22.155 45.3104 22.0091 44.9582 21.7494 44.6985C21.4898 44.4388 21.1376 44.293 20.7703 44.293H19.6073C19.24 44.293 18.8879 44.4388 18.6282 44.6985C18.3685 44.9582 18.2227 45.3104 18.2227 45.6776C18.2227 46.0448 18.3685 46.397 18.6282 46.6567C18.8879 46.9163 19.24 47.0622 19.6073 47.0622Z" fill="#2B8761"/>
<path d="M70.0547 32.9868H57.1105V3.10288C57.1105 2.73565 56.9647 2.38347 56.705 2.12381C56.4453 1.86414 56.0932 1.71826 55.7259 1.71826H26.6648C26.3045 1.72856 25.9624 1.87897 25.7112 2.13753C25.4601 2.39609 25.3196 2.74241 25.3198 3.10288V20.3908H13.7127C13.3455 20.3908 12.9933 20.5367 12.7337 20.7963C12.474 21.056 12.3281 21.4082 12.3281 21.7754V38.9921C12.3281 39.3593 12.474 39.7115 12.7337 39.9712C12.9933 40.2308 13.3455 40.3767 13.7127 40.3767C14.08 40.3767 14.4321 40.2308 14.6918 39.9712C14.9515 39.7115 15.0974 39.3593 15.0974 38.9921V23.1679H25.3198V69.4932H15.0341C14.6668 69.4932 14.3147 69.6391 14.055 69.8988C13.7953 70.1584 13.6494 70.5106 13.6494 70.8778C13.6494 71.245 13.7953 71.5972 14.055 71.8569C14.3147 72.1166 14.6668 72.2624 15.0341 72.2624H65.3233C66.9406 72.2604 68.4915 71.6186 69.6373 70.4772C70.7832 69.3358 71.431 67.7874 71.4393 66.1701V34.3714C71.4393 34.0042 71.2935 33.652 71.0338 33.3924C70.7741 33.1327 70.4219 32.9868 70.0547 32.9868ZM37.6705 69.4932V58.4717H44.7202V69.4932H37.6705ZM54.3413 69.4932H47.4736V57.0871C47.4736 56.7198 47.3277 56.3676 47.0681 56.108C46.8084 55.8483 46.4562 55.7024 46.089 55.7024H36.2859C35.9187 55.7024 35.5665 55.8483 35.3069 56.108C35.0472 56.3676 34.9013 56.7198 34.9013 57.0871V69.4932H28.0494V4.45584H54.3413V69.4932ZM68.6701 66.1701C68.6701 67.0585 68.3178 67.9106 67.6903 68.5395C67.0629 69.1684 66.2116 69.5228 65.3233 69.5249H57.1185V35.7561H68.6701V66.1701Z" fill="#2B8761"/>
<path d="M17.6369 53.0994C17.6369 47.4581 10.247 43.2014 9.93054 43.0273C9.72392 42.9071 9.48914 42.8438 9.25009 42.8438C9.01105 42.8438 8.77627 42.9071 8.56966 43.0273C8.25317 43.2014 0.863281 47.4581 0.863281 53.0994C0.863281 58.179 3.90152 62.3961 7.86548 63.2031V70.9174C7.86548 71.2846 8.01136 71.6368 8.27102 71.8965C8.53069 72.1562 8.88287 72.302 9.25009 72.302C9.61732 72.302 9.9695 72.1562 10.2292 71.8965C10.4888 71.6368 10.6347 71.2846 10.6347 70.9174V63.2427C14.5987 62.3961 17.6369 58.179 17.6369 53.0994ZM3.63251 53.0994C3.63251 50.1324 7.21669 47.1732 9.25009 45.8519C11.2835 47.1732 14.8677 50.1165 14.8677 53.0994C14.8677 56.5886 13.0637 59.524 10.6347 60.3469V57.0871C10.6347 56.7199 10.4888 56.3677 10.2292 56.108C9.9695 55.8483 9.61732 55.7025 9.25009 55.7025C8.88287 55.7025 8.53069 55.8483 8.27102 56.108C8.01136 56.3677 7.86548 56.7199 7.86548 57.0871V60.3469C5.43647 59.524 3.63251 56.5965 3.63251 53.0994Z" fill="#2B8761"/>
</g>
<defs>
<clipPath id="clip0_1102_1743">
<rect width="72" height="72" fill="white" transform="translate(0 0.5)"/>
</clipPath>
</defs>
</svg>
