<svg width="72" height="73" viewBox="0 0 72 73" fill="none" xmlns="http://www.w3.org/2000/svg">
<g clip-path="url(#clip0_1102_1822)">
<path d="M68.8287 33.8097H62.9086C65.0181 32.0875 66.3678 29.4683 66.3678 26.539C66.3678 21.3646 62.1581 17.1548 56.9836 17.1548H54.7715C55.4171 16.286 55.7996 15.2108 55.7996 14.0479C55.7996 12.3493 54.9838 10.8382 53.7238 9.88418C54.9837 8.9302 55.7996 7.41906 55.7996 5.72048C55.7997 2.84193 53.4579 0.5 50.5794 0.5H21.4195C18.541 0.5 16.1992 2.84193 16.1992 5.72048C16.1992 7.41906 17.0149 8.9302 18.2749 9.88418C17.0149 10.8382 16.1992 12.3493 16.1992 14.0479C16.1992 15.211 16.5818 16.286 17.2273 17.1548H10.8514C7.97289 17.1548 5.63096 19.4967 5.63096 22.3753C5.63096 24.0739 6.44671 25.585 7.70669 26.539C6.44671 27.493 5.63096 29.0041 5.63096 30.7027C5.63096 31.8658 6.01359 32.941 6.65919 33.8097H3.1702C1.42212 33.8097 0 35.2319 0 36.9799V41.3835C0 43.1316 1.42212 44.5538 3.1702 44.5538H4.03602L7.64144 68.0188C8.04039 70.6154 10.2368 72.5 12.8639 72.5H59.135C61.762 72.5 63.9582 70.6154 64.3573 68.0188L67.9627 44.5538H68.8285C70.5766 44.5538 71.9987 43.1316 71.9987 41.3835V36.9799C71.9989 35.2319 70.5766 33.8097 68.8287 33.8097ZM53.6863 5.72048C53.6863 7.43369 52.2926 8.8274 50.5794 8.8274H42.7991L49.9387 2.61342H50.5794C52.2926 2.61342 53.6863 4.00727 53.6863 5.72048ZM46.7195 2.61342L35.9994 11.9437L25.2793 2.61342H46.7195ZM18.3126 5.72048C18.3126 4.00727 19.7063 2.61356 21.4195 2.61356H22.0601L29.1996 8.82754H21.4195C19.7063 8.8274 18.3126 7.43369 18.3126 5.72048ZM7.74438 30.7027C7.74438 28.9895 9.13809 27.5958 10.8513 27.5958H17.2242C17.8078 27.5958 18.281 27.1227 18.281 26.539C18.281 25.9554 17.8078 25.4822 17.2242 25.4822H10.8514C9.13823 25.4822 7.74452 24.0885 7.74452 22.3753C7.74452 20.6621 9.13823 19.2684 10.8514 19.2684H43.3675C43.9512 19.2684 44.4243 18.7953 44.4243 18.2116C44.4243 17.6279 43.9512 17.1548 43.3675 17.1548H21.4195C19.7063 17.1548 18.3126 15.7611 18.3126 14.0479C18.3126 12.3347 19.7063 10.9408 21.4195 10.9408H31.6279L35.3056 14.1418C35.7033 14.488 36.2955 14.488 36.6931 14.1418L40.3708 10.941H50.5794C52.2926 10.941 53.6863 12.3347 53.6863 14.048C53.6863 15.7612 52.2926 17.1549 50.5794 17.1549H47.5945C47.0108 17.1549 46.5377 17.6281 46.5377 18.2117C46.5377 18.7953 47.0108 19.2685 47.5945 19.2685H56.9837C60.9929 19.2685 64.2544 22.5301 64.2544 26.5393C64.2544 30.5483 60.9928 33.81 56.9837 33.81H10.8514C9.13823 33.8097 7.74438 32.4159 7.74438 30.7027ZM63.2763 61.1378H54.6047L55.2729 53.7738H64.4078L63.2763 61.1378ZM52.4824 61.1378H42.8739L43.0955 53.7738H53.1506L52.4824 61.1378ZM48.7476 70.3864H41.6417C42.2687 69.5462 42.652 68.5097 42.6862 67.3751L42.8102 63.2512H52.2905L51.9046 67.5027C51.7557 69.1467 50.3984 70.3864 48.7476 70.3864ZM34.5939 70.3864C32.8689 70.3864 31.477 69.0358 31.4251 67.3116L31.3029 63.2512H40.6958L40.5736 67.3116C40.5217 69.0358 39.1298 70.3864 37.405 70.3864H34.5939ZM23.2513 70.3864C21.6005 70.3864 20.2432 69.1467 20.094 67.5028L19.7081 63.2514H29.1885L29.3125 67.3753C29.3467 68.5098 29.7299 69.5464 30.3569 70.3866H23.2513V70.3864ZM7.59096 53.774H16.7258L17.3941 61.138H8.72241L7.59096 53.774ZM18.8481 53.774H28.9033L29.125 61.138H19.5163L18.8481 53.774ZM40.7594 61.1378H31.2394L31.0177 53.7738H40.981L40.7594 61.1378ZM30.9542 51.6605L30.7403 44.5538H41.2585L41.0446 51.6605H30.9542ZM28.6259 44.5538L28.8398 51.6605H18.6563L18.0114 44.5538H28.6259ZM15.8893 44.5538L16.5341 51.6605H7.26626L6.17433 44.5538H15.8893ZM9.7304 67.6977L9.04725 63.2514H17.586L17.9892 67.6938C18.0811 68.7071 18.4492 69.6279 19.0147 70.3864H12.8639C11.2875 70.3864 9.96974 69.2557 9.7304 67.6977ZM62.2683 67.6977C62.029 69.2557 60.7112 70.3864 59.135 70.3864H52.984C53.5497 69.6278 53.9177 68.7071 54.0096 67.6938L54.4127 63.2514H62.9513L62.2683 67.6977ZM64.7325 51.6605H55.4647L56.1096 44.5538H65.8244L64.7325 51.6605ZM69.8853 41.3835C69.8853 41.9663 69.4113 42.4403 68.8285 42.4403H50.5794C49.9956 42.4403 49.5226 42.9134 49.5226 43.4971C49.5226 44.0808 49.9956 44.5539 50.5794 44.5539H53.9875L53.3426 51.6607H43.1593L43.3731 44.5539H46.3525C46.9362 44.5539 47.4093 44.0807 47.4093 43.4971C47.4093 42.9135 46.9362 42.4403 46.3525 42.4403H3.1702C2.58746 42.4403 2.11342 41.9663 2.11342 41.3835V36.9799C2.11342 36.3972 2.58746 35.9232 3.1702 35.9232H68.8287C69.4114 35.9232 69.8855 36.3972 69.8855 36.9799V41.3835H69.8853Z" fill="#2B8761"/>
<path d="M57.408 26.5392C57.408 25.9556 56.9349 25.4824 56.3512 25.4824H21.4513C20.8677 25.4824 20.3945 25.9556 20.3945 26.5392C20.3945 27.1228 20.8676 27.596 21.4513 27.596H56.3512C56.9349 27.596 57.408 27.1229 57.408 26.5392Z" fill="#2B8761"/>
</g>
<defs>
<clipPath id="clip0_1102_1822">
<rect width="72" height="72" fill="white" transform="translate(0 0.5)"/>
</clipPath>
</defs>
</svg>
