<svg width="72" height="73" viewBox="0 0 72 73" fill="none" xmlns="http://www.w3.org/2000/svg">
<path d="M67.5 23H70.875V20.75H68.2537L62.9606 7.89462C61.3913 4.0865 57.717 1.625 53.5984 1.625H35.2721C31.824 1.625 28.6447 3.35413 26.7705 6.24875L17.2845 20.9086L1.94175 25.2939C1.458 25.4311 1.125 25.8732 1.125 26.375V41C1.125 41.621 1.62788 42.125 2.25 42.125H7.94137C8.50275 47.1796 12.7969 51.125 18 51.125C23.2031 51.125 27.4972 47.1796 28.0586 42.125H31.6485L32.256 43.0374C33.9694 45.6069 34.875 48.5983 34.875 51.6875C34.875 54.7767 33.9694 57.7681 32.256 60.3376L31.4347 61.5706C30.7417 62.6101 30.3761 63.8206 30.3761 65.0683C30.375 68.5456 33.2044 71.375 36.6806 71.375C37.9294 71.375 39.1399 71.0082 40.1782 70.3164L40.9433 69.8067C42.2044 68.9664 43.569 68.3071 44.9989 67.8189V71.375H47.2489V66.875C47.2489 66.4993 47.061 66.1482 46.7483 65.939L40.5 61.7731V57.875C40.5 57.2551 41.004 56.75 41.625 56.75C42.246 56.75 42.75 57.2551 42.75 57.875V61.25H45V57.875V46.625C45 46.0051 45.504 45.5 46.125 45.5C46.746 45.5 47.25 46.0051 47.25 46.625V48.875V54.5H49.5V48.875V46.625V44.375C49.5 43.7551 50.004 43.25 50.625 43.25C51.246 43.25 51.75 43.7551 51.75 44.375V46.625V48.875V54.5H54V48.875V46.625C54 46.0051 54.504 45.5 55.125 45.5C55.746 45.5 56.25 46.0051 56.25 46.625V51.125V54.5H58.5V51.125C58.5 50.5051 59.004 50 59.625 50C60.246 50 60.75 50.5051 60.75 51.125V63.0342L58.8296 64.9546C58.6181 65.165 58.5 65.4519 58.5 65.75V71.375H60.75V70.1015L61.0706 70.3152C62.1101 71.0082 63.3195 71.375 64.5694 71.375C68.0456 71.375 70.875 68.5456 70.875 65.0694C70.875 63.8206 70.5094 62.6112 69.8164 61.5718L68.9951 60.3387C67.2806 57.7681 66.375 54.7767 66.375 51.6875C66.375 48.5983 67.2806 45.6069 68.994 43.0374L69.8152 41.8044C70.5082 40.7649 70.8739 39.5544 70.8739 38.3067C70.875 34.8294 68.0456 32 64.5694 32C63.3206 32 62.1101 32.3668 61.0718 33.0586L60.3067 33.5682C57.4301 35.4864 54.0821 36.5 50.625 36.5C47.1679 36.5 43.8199 35.4864 40.9444 33.5694L40.1794 33.0597C39.1399 32.3667 37.9305 32 36.6806 32C33.2044 32 30.375 34.8294 30.375 38.3056C30.375 38.84 30.456 39.3643 30.5865 39.875H28.0586C27.4972 34.8204 23.2031 30.875 18 30.875C12.7969 30.875 8.50275 34.8204 7.94137 39.875H3.375V33.125H6.75C7.37213 33.125 7.875 32.621 7.875 32V25.9374L18.3083 22.9561C18.5704 22.8819 18.7965 22.7142 18.9439 22.4859L28.6594 7.47162C30.1174 5.21937 32.589 3.875 35.2721 3.875H53.5984C56.8024 3.875 59.661 5.78975 60.8805 8.75187L66.4605 22.3036C66.6326 22.7244 67.0444 23 67.5 23ZM36.6806 34.25C37.4839 34.25 38.2612 34.4851 38.9306 34.9306L39.6956 35.4403C42.9435 37.6059 46.7224 38.75 50.625 38.75C54.5276 38.75 58.3065 37.6059 61.5544 35.4414L62.3194 34.9318C62.9888 34.4863 63.7661 34.2511 64.5694 34.2511C66.8059 34.25 68.625 36.0691 68.625 38.3056C68.625 39.1089 68.3899 39.8874 67.9444 40.5556L67.1231 41.7886C65.1611 44.7294 64.125 48.1516 64.125 51.6875C64.125 55.2234 65.1611 58.6456 67.122 61.5864L67.9433 62.8194C68.3887 63.4876 68.6239 64.2661 68.6239 65.0694C68.625 67.3059 66.8059 69.125 64.5694 69.125C63.7661 69.125 62.9888 68.8899 62.3194 68.4444L61.5544 67.9348C61.2923 67.7604 61.0189 67.6062 60.75 67.4454V66.2169L62.6704 64.2965C62.8819 64.085 63 63.7981 63 63.5V51.125C63 49.2643 61.4857 47.75 59.625 47.75C59.229 47.75 58.8532 47.831 58.5 47.957V46.625C58.5 44.7643 56.9857 43.25 55.125 43.25C54.6806 43.25 54.2587 43.3411 53.8695 43.4975C53.4814 42.0631 52.1809 41 50.625 41C49.0691 41 47.7698 42.0631 47.3805 43.4975C46.9913 43.3411 46.5694 43.25 46.125 43.25C44.2643 43.25 42.75 44.7643 42.75 46.625V54.707C42.3968 54.581 42.021 54.5 41.625 54.5C39.7643 54.5 38.25 56.0143 38.25 57.875V62.375C38.25 62.7508 38.4379 63.1017 38.7506 63.311L43.029 66.1629C41.868 66.6489 40.7486 67.2316 39.6956 67.9336L38.9306 68.4433C38.2612 68.8887 37.4839 69.1239 36.6806 69.1239C34.4441 69.125 32.625 67.3059 32.625 65.0694C32.625 64.2661 32.8601 63.4876 33.3056 62.8194L34.1269 61.5864C36.0889 58.6456 37.125 55.2234 37.125 51.6875C37.125 48.1516 36.0889 44.7294 34.128 41.7886L33.3068 40.5556C32.8613 39.8874 32.6261 39.1089 32.6261 38.3056C32.625 36.0691 34.4441 34.25 36.6806 34.25ZM18 33.125C22.3414 33.125 25.875 36.6575 25.875 41C25.875 45.3425 22.3414 48.875 18 48.875C13.6586 48.875 10.125 45.3425 10.125 41C10.125 36.6575 13.6586 33.125 18 33.125ZM5.625 30.875H3.375V27.2232L5.625 26.5809V30.875Z" fill="#2B8761"/>
<path d="M18 46.625C21.1016 46.625 23.625 44.1016 23.625 41C23.625 37.8984 21.1016 35.375 18 35.375C14.8984 35.375 12.375 37.8984 12.375 41C12.375 44.1016 14.8984 46.625 18 46.625ZM18 37.625C19.8608 37.625 21.375 39.1393 21.375 41C21.375 42.8608 19.8608 44.375 18 44.375C16.1393 44.375 14.625 42.8608 14.625 41C14.625 39.1393 16.1393 37.625 18 37.625Z" fill="#2B8761"/>
<path d="M62.8024 22.5117C63.0128 22.2069 63.0589 21.8176 62.925 21.4711L58.4104 9.73062C57.5801 7.574 55.4696 6.125 53.16 6.125H36.2648C34.2971 6.125 32.5061 7.12625 31.4734 8.8025L23.7919 21.2855C23.5781 21.6331 23.5691 22.0674 23.7683 22.424C23.9674 22.7806 24.3431 23 24.7504 23H61.8754C62.2455 23 62.5931 22.8178 62.8024 22.5117ZM33.3904 9.9815C34.0091 8.97575 35.0846 8.375 36.2648 8.375H42.7504V20.75H26.763L33.3904 9.9815ZM45.0004 20.75V8.375H53.16C54.5449 8.375 55.8116 9.24463 56.31 10.5384L60.2374 20.75H45.0004Z" fill="#2B8761"/>
<path d="M40.5 25.25H45V27.5H40.5V25.25Z" fill="#2B8761"/>
<path d="M58.5 25.25H63V27.5H58.5V25.25Z" fill="#2B8761"/>
<path d="M27 63.5C24.5182 63.5 22.5 61.4818 22.5 59C22.5 58.379 21.9971 57.875 21.375 57.875C20.7529 57.875 20.25 58.379 20.25 59C20.25 61.4818 18.2318 63.5 15.75 63.5C15.1279 63.5 14.625 64.004 14.625 64.625C14.625 65.246 15.1279 65.75 15.75 65.75C18.2318 65.75 20.25 67.7682 20.25 70.25C20.25 70.871 20.7529 71.375 21.375 71.375C21.9971 71.375 22.5 70.871 22.5 70.25C22.5 67.7682 24.5182 65.75 27 65.75C27.6221 65.75 28.125 65.246 28.125 64.625C28.125 64.004 27.6221 63.5 27 63.5ZM21.375 66.5229C20.8755 65.7714 20.2286 65.1256 19.4771 64.625C20.2286 64.1255 20.8744 63.4786 21.375 62.7271C21.8745 63.4786 22.5214 64.1244 23.2729 64.625C22.5214 65.1245 21.8745 65.7714 21.375 66.5229Z" fill="#2B8761"/>
<path d="M13.5 55.625C11.0182 55.625 9 53.6068 9 51.125C9 50.504 8.49713 50 7.875 50C7.25287 50 6.75 50.504 6.75 51.125C6.75 53.6068 4.73175 55.625 2.25 55.625C1.62788 55.625 1.125 56.129 1.125 56.75C1.125 57.371 1.62788 57.875 2.25 57.875C4.73175 57.875 6.75 59.8932 6.75 62.375C6.75 62.996 7.25287 63.5 7.875 63.5C8.49713 63.5 9 62.996 9 62.375C9 59.8932 11.0182 57.875 13.5 57.875C14.1221 57.875 14.625 57.371 14.625 56.75C14.625 56.129 14.1221 55.625 13.5 55.625ZM7.875 58.6479C7.3755 57.8964 6.72863 57.2495 5.97713 56.75C6.72863 56.2505 7.3755 55.6036 7.875 54.8521C8.3745 55.6036 9.02138 56.2505 9.77287 56.75C9.02138 57.2495 8.3745 57.8964 7.875 58.6479Z" fill="#2B8761"/>
<path d="M2.25 9.5C4.73175 9.5 6.75 11.5182 6.75 14C6.75 14.621 7.25287 15.125 7.875 15.125C8.49713 15.125 9 14.621 9 14C9 11.5182 11.0182 9.5 13.5 9.5C14.1221 9.5 14.625 8.996 14.625 8.375C14.625 7.754 14.1221 7.25 13.5 7.25C11.0182 7.25 9 5.23175 9 2.75C9 2.129 8.49713 1.625 7.875 1.625C7.25287 1.625 6.75 2.129 6.75 2.75C6.75 5.23175 4.73175 7.25 2.25 7.25C1.62788 7.25 1.125 7.754 1.125 8.375C1.125 8.996 1.62788 9.5 2.25 9.5ZM7.875 6.47713C8.3745 7.22863 9.02138 7.8755 9.77287 8.375C9.02138 8.8745 8.3745 9.52138 7.875 10.2729C7.3755 9.52138 6.72863 8.8745 5.97713 8.375C6.72863 7.8755 7.3755 7.22863 7.875 6.47713Z" fill="#2B8761"/>
</svg>
