<svg width="72" height="73" viewBox="0 0 72 73" fill="none" xmlns="http://www.w3.org/2000/svg">
<g clip-path="url(#clip0_1102_1853)">
<path d="M71.1243 40.6816C70.3215 39.4175 69.0743 38.5417 67.6126 38.2154C67.1249 38.1066 66.6378 38.0662 66.1607 38.0861V27.2714C66.1607 23.5527 63.1354 20.5273 59.4167 20.5273H56.483C55.9005 20.5273 55.4283 20.9994 55.4283 21.582C55.4283 22.1646 55.9004 22.6367 56.483 22.6367H59.4167C61.9722 22.6367 64.0513 24.7159 64.0513 27.2714V38.5964C62.5162 39.3043 61.3154 40.6932 60.9197 42.4665L60.8512 42.7732C59.9331 42.3215 58.9147 42.0802 57.8831 42.0802H41.6585C39.8776 42.0802 38.2577 42.7786 37.055 43.9143V36.2962C37.055 35.7136 36.5829 35.2415 36.0003 35.2415C35.4177 35.2415 34.9456 35.7136 34.9456 36.2962V43.9155C33.7307 42.7718 32.0995 42.0802 30.3421 42.0802H14.1172C13.0695 42.0802 12.0629 42.3156 11.1482 42.7689L11.0807 42.4664C10.685 40.6931 9.48416 39.3041 7.9491 38.5962V27.2713C7.9491 26.2705 8.27043 25.3139 8.85093 24.5259L9.31935 25.3826C9.57923 25.8573 10.0768 26.1522 10.6179 26.1522C11.1591 26.1522 11.6565 25.8572 11.9164 25.3823L13.357 22.7485L13.5644 22.635C13.5737 22.6353 13.5828 22.6364 13.5922 22.6364H30.3109C32.8663 22.6364 34.9454 24.7156 34.9454 27.2711V31.6996C34.9454 32.282 35.4175 32.7543 36.0001 32.7543C36.5826 32.7543 37.0548 32.2822 37.0548 31.6996V27.2711C37.0548 24.7156 39.134 22.6364 41.6894 22.6364H51.8865C52.469 22.6364 52.9412 22.1644 52.9412 21.5817C52.9412 20.9993 52.4692 20.5271 51.8865 20.5271H41.6894C39.2999 20.5271 37.1984 21.7774 36.0001 23.6568C34.8019 21.7772 32.7004 20.5271 30.3109 20.5271H16.6643C16.7255 20.3636 16.7609 20.1894 16.7609 20.0091C16.7609 19.4677 16.4658 18.9703 15.9909 18.7106L13.357 17.27L11.9166 14.6363C11.6567 14.1612 11.1591 13.8662 10.6179 13.8662C10.0766 13.8662 9.57909 14.1614 9.31935 14.6361L7.87865 17.27L5.24474 18.7106C4.76999 18.9705 4.4751 19.468 4.4751 20.0091C4.4751 20.5504 4.77013 21.0479 5.24488 21.3077L7.68205 22.6406C6.50348 23.8866 5.83959 25.5333 5.83959 27.271V38.0856C5.36244 38.0658 4.87532 38.1062 4.38749 38.215C2.92598 38.5411 1.67877 39.4171 0.875945 40.6812C0.0729763 41.9452 -0.189571 43.4463 0.136539 44.9079L2.36305 54.8869C3.13888 58.3643 6.03379 60.8555 9.52635 61.1429L8.66404 62.0054C7.06345 63.6063 7.06345 66.2108 8.66404 67.8115C9.43945 68.5872 10.4705 69.0143 11.5672 69.0143C12.664 69.0143 13.6949 68.5872 14.4704 67.8116L21.1108 61.1713H42.3526C42.9351 61.1713 43.4073 60.6993 43.4073 60.1166C43.4073 59.534 42.9352 59.062 42.3526 59.062H10.2047C7.40882 59.062 5.03085 57.1564 4.42209 54.4277L2.19557 44.4486C1.77552 42.5668 2.96507 40.6939 4.84705 40.2739C6.72904 39.8536 8.60188 41.0434 9.02193 42.9255L10.0832 47.6822C10.6595 50.2643 12.9096 52.0677 15.5552 52.0677H56.4455C59.091 52.0677 61.3412 50.2643 61.9175 47.682L62.9788 42.9257C63.3987 41.0435 65.2722 39.8543 67.1535 40.2739C69.0356 40.6938 70.2252 42.5667 69.8051 44.4488L67.5786 54.4275C66.9698 57.1562 64.5919 59.062 61.796 59.062H46.9493C46.3667 59.062 45.8946 59.534 45.8946 60.1166C45.8946 60.6991 46.3667 61.1713 46.9493 61.1713H50.8895L57.5298 67.8115C58.3054 68.5872 59.3363 69.0143 60.433 69.0143C61.5298 69.0143 62.5607 68.5872 63.3362 67.8116C64.9368 66.2108 64.9368 63.6063 63.3362 62.0052L62.4739 61.1429C65.9665 60.8555 68.8614 58.3642 69.6372 54.8867L71.8637 44.9081C72.1898 43.4467 71.9273 41.9457 71.1243 40.6816ZM9.05231 19.0329C9.30149 18.8968 9.50526 18.693 9.64138 18.4437L10.618 16.658L11.5947 18.4437C11.7308 18.693 11.9346 18.8969 12.1833 19.0326L13.9695 20.0096L12.1839 20.9862C11.9346 21.1225 11.7306 21.3261 11.5949 21.5747L10.618 23.3609L9.64138 21.5753C9.50526 21.3261 9.30149 21.1222 9.05287 20.9865L7.26665 20.0096L9.05231 19.0329ZM12.9791 66.3205C12.6021 66.6976 12.1008 66.9052 11.5675 66.9052C11.0343 66.9052 10.5329 66.6975 10.1559 66.3203C9.37757 65.5421 9.37757 64.2755 10.1559 63.4971L12.4816 61.1715H18.1278L12.9791 66.3205ZM12.142 47.2232L11.6281 44.9201C12.3689 44.4413 13.2209 44.1896 14.1172 44.1896H30.3421C32.0377 44.1896 33.6385 45.163 34.4249 46.6645C34.9771 47.719 34.9457 48.8115 34.9457 49.9586H15.5551C13.9049 49.9586 12.5013 48.8337 12.142 47.2232ZM56.4455 49.9586H37.055V48.7931C37.055 46.2547 39.12 44.1896 41.6585 44.1896H57.8834C58.7801 44.1896 59.6317 44.4413 60.3724 44.9203L59.8586 47.223C59.4993 48.8337 58.0956 49.9586 56.4455 49.9586ZM61.8446 66.3205C61.4676 66.6976 60.9663 66.9052 60.433 66.9052C59.8998 66.9052 59.3984 66.6975 59.0214 66.3203L53.8727 61.1716H59.519L61.8446 63.4971C62.623 64.2755 62.623 65.5421 61.8446 66.3205Z" fill="#2B8761"/>
<path d="M46.6129 28.9202C46.201 28.5084 45.5333 28.5084 45.1214 28.9202C44.7095 29.3321 44.7095 29.9998 45.1214 30.4117C45.5333 30.8236 46.2011 30.8236 46.6129 30.4117C47.0248 29.9998 47.0248 29.3321 46.6129 28.9202Z" fill="#2B8761"/>
<path d="M55.984 30.4117C56.3959 29.9998 56.3959 29.3321 55.984 28.9202C55.5721 28.5084 54.9044 28.5084 54.4925 28.9202C54.0806 29.3321 54.0806 29.9998 54.4925 30.4117C54.9044 30.8236 55.5721 30.8236 55.984 30.4117Z" fill="#2B8761"/>
<path d="M45.1214 35.3928C44.7095 35.8047 44.7095 36.4725 45.1214 36.8843C45.5333 37.2962 46.2011 37.2962 46.6129 36.8843C47.0248 36.4724 47.0248 35.8047 46.6129 35.3928C46.201 34.981 45.5333 34.981 45.1214 35.3928Z" fill="#2B8761"/>
<path d="M55.984 36.8844C56.3959 36.4725 56.3959 35.8048 55.984 35.3929C55.5721 34.981 54.9044 34.981 54.4925 35.3929C54.0806 35.8048 54.0806 36.4725 54.4925 36.8844C54.9044 37.2963 55.5721 37.2963 55.984 36.8844Z" fill="#2B8761"/>
<path d="M17.5074 28.9202C17.0955 28.5084 16.4278 28.5084 16.0159 28.9202C15.6041 29.3321 15.6041 29.9998 16.0159 30.4117C16.4278 30.8236 17.0955 30.8236 17.5074 30.4117C17.9193 29.9998 17.9193 29.3321 17.5074 28.9202Z" fill="#2B8761"/>
<path d="M26.8785 28.9202C26.4666 28.5084 25.7989 28.5084 25.387 28.9202C24.9752 29.3321 24.9752 29.9998 25.387 30.4117C25.7989 30.8236 26.4666 30.8236 26.8785 30.4117C27.2904 29.9998 27.2904 29.3321 26.8785 28.9202Z" fill="#2B8761"/>
<path d="M16.0159 35.3928C15.6041 35.8047 15.6041 36.4725 16.0159 36.8843C16.4278 37.2962 17.0955 37.2962 17.5074 36.8843C17.9193 36.4724 17.9193 35.8047 17.5074 35.3928C17.0955 34.981 16.4278 34.981 16.0159 35.3928Z" fill="#2B8761"/>
<path d="M25.387 35.3928C24.9752 35.8047 24.9752 36.4725 25.387 36.8843C25.7989 37.2962 26.4666 37.2962 26.8785 36.8843C27.2904 36.4724 27.2904 35.8047 26.8785 35.3928C26.4666 34.981 25.7989 34.981 25.387 35.3928Z" fill="#2B8761"/>
<path d="M23.1254 11.4278L25.7592 12.8683L27.1997 15.5021C27.4596 15.9771 27.9571 16.2722 28.4984 16.2722C29.0397 16.2722 29.5372 15.9771 29.7969 15.5022L31.2376 12.8683L33.8713 11.4279C34.3463 11.168 34.6413 10.6705 34.6413 10.1292C34.6413 9.58784 34.3461 9.09031 33.8714 8.83072L31.2375 7.39016L29.7971 4.75639C29.5372 4.28136 29.0397 3.98633 28.4984 3.98633C27.9571 3.98633 27.4595 4.28136 27.1999 4.75625L25.7593 7.39016L23.1255 8.83058C22.6505 9.09045 22.3555 9.58798 22.3555 10.1292C22.3555 10.6707 22.6505 11.1682 23.1254 11.4278ZM26.9334 9.15219C27.182 9.0162 27.3853 8.81286 27.5212 8.56423C27.5213 8.56409 27.5213 8.56409 27.5213 8.56395L28.4982 6.77773L29.4753 8.56423C29.6113 8.81272 29.8146 9.0162 30.0634 9.15219L31.8496 10.1291L30.0631 11.1062C29.8142 11.2424 29.6107 11.4459 29.475 11.6944L28.4981 13.4806L27.5215 11.695C27.3855 11.4459 27.182 11.2423 26.9328 11.106L25.1466 10.1291L26.9334 9.15219Z" fill="#2B8761"/>
</g>
<defs>
<clipPath id="clip0_1102_1853">
<rect width="72" height="72" fill="white" transform="translate(0 0.5)"/>
</clipPath>
</defs>
</svg>
