<svg width="72" height="73" viewBox="0 0 72 73" fill="none" xmlns="http://www.w3.org/2000/svg">
<g clip-path="url(#clip0_1102_1786)">
<path d="M70.875 0.5H1.125C0.826631 0.5 0.540483 0.618526 0.329505 0.829505C0.118526 1.04048 0 1.32663 0 1.625L0 71.375C0 71.6734 0.118526 71.9595 0.329505 72.1705C0.540483 72.3815 0.826631 72.5 1.125 72.5H70.875C71.1734 72.5 71.4595 72.3815 71.6705 72.1705C71.8815 71.9595 72 71.6734 72 71.375V1.625C72 1.32663 71.8815 1.04048 71.6705 0.829505C71.4595 0.618526 71.1734 0.5 70.875 0.5V0.5ZM69.75 70.25H2.25V2.75H69.75V70.25Z" fill="#2B8761"/>
<path d="M6.75 35.375H33.75C34.0484 35.375 34.3345 35.2565 34.5455 35.0455C34.7565 34.8345 34.875 34.5484 34.875 34.25V7.25C34.875 6.95163 34.7565 6.66548 34.5455 6.45451C34.3345 6.24353 34.0484 6.125 33.75 6.125H6.75C6.45163 6.125 6.16548 6.24353 5.95451 6.45451C5.74353 6.66548 5.625 6.95163 5.625 7.25V34.25C5.625 34.5484 5.74353 34.8345 5.95451 35.0455C6.16548 35.2565 6.45163 35.375 6.75 35.375ZM16.2157 33.125L26.6704 22.6704L25.0796 21.0796L13.0343 33.125H9.46575L32.625 9.96575V33.125H16.2157ZM24.2843 8.375L12.7046 19.9546L14.2954 21.5454L27.4657 8.375H31.0343L7.875 31.5343V8.375H24.2843Z" fill="#2B8761"/>
<path d="M38.25 35.375H65.25C65.5484 35.375 65.8345 35.2565 66.0455 35.0455C66.2565 34.8345 66.375 34.5484 66.375 34.25V7.25C66.375 6.95163 66.2565 6.66548 66.0455 6.45451C65.8345 6.24353 65.5484 6.125 65.25 6.125H38.25C37.9516 6.125 37.6655 6.24353 37.4545 6.45451C37.2435 6.66548 37.125 6.95163 37.125 7.25V34.25C37.125 34.5484 37.2435 34.8345 37.4545 35.0455C37.6655 35.2565 37.9516 35.375 38.25 35.375ZM39.375 8.375H64.125V33.125H39.375V8.375Z" fill="#2B8761"/>
<path d="M6.75 66.875H33.75C34.0484 66.875 34.3345 66.7565 34.5455 66.5455C34.7565 66.3345 34.875 66.0484 34.875 65.75V38.75C34.875 38.4516 34.7565 38.1655 34.5455 37.9545C34.3345 37.7435 34.0484 37.625 33.75 37.625H6.75C6.45163 37.625 6.16548 37.7435 5.95451 37.9545C5.74353 38.1655 5.625 38.4516 5.625 38.75V65.75C5.625 66.0484 5.74353 66.3345 5.95451 66.5455C6.16548 66.7565 6.45163 66.875 6.75 66.875ZM7.875 39.875H32.625V64.625H7.875V39.875Z" fill="#2B8761"/>
<path d="M38.25 66.875H65.25C65.5484 66.875 65.8345 66.7565 66.0455 66.5455C66.2565 66.3345 66.375 66.0484 66.375 65.75V38.75C66.375 38.4516 66.2565 38.1655 66.0455 37.9545C65.8345 37.7435 65.5484 37.625 65.25 37.625H38.25C37.9516 37.625 37.6655 37.7435 37.4545 37.9545C37.2435 38.1655 37.125 38.4516 37.125 38.75V65.75C37.125 66.0484 37.2435 66.3345 37.4545 66.5455C37.6655 66.7565 37.9516 66.875 38.25 66.875ZM47.7158 64.625L58.1704 54.1704L56.5796 52.5796L44.5342 64.625H40.9658L64.125 41.4658V64.625H47.7158ZM55.7842 39.875L44.2046 51.4546L45.7954 53.0454L58.9658 39.875H62.5342L39.375 63.0342V39.875H55.7842Z" fill="#2B8761"/>
</g>
<defs>
<clipPath id="clip0_1102_1786">
<rect width="72" height="72" fill="white" transform="translate(0 0.5)"/>
</clipPath>
</defs>
</svg>
